#!OML:ASF H:\Terrain\Patient Classification 1\Walking\steve\steve.ASF
:FULLY-SPECIFIED
:DEGREES
212
root 6.81799 15.8661 -11.6487 7.94117 -6.65805 -3.6694
lowerback -3.63879 6.10818 2.03791
upperback -2.51501 8.08447 -0.281476
thorax -0.241751 4.02258 -1.12369
lowerneck -11.1397 -1.66281 -1.76636
upperneck 17.6903 -2.42808 2.59139
head 7.31514 -1.03891 0.90539
rclavicle 8.48251e-014 6.95746e-015
rhumerus -17.8636 -3.76063 -83.5939
rradius 38.2488
rwrist -10.6816
rhand -15.9335 -48.0207
rfingers 7.12502
rthumb 10.2643 -77.7502
lclavicle 8.48251e-014 6.95746e-015
lhumerus -60.1647 15.4273 64.0967
lradius 15.5997
lwrist -5.73746
lhand -16.3377 -10.6007
lfingers 7.12502
lthumb 9.87439 19.1478
rfemur 5.84198 6.26413 23.9282
rtibia 32.6512
rfoot 9.31219 10.3471
rtoes 2.00394
lfemur -37.8345 2.60861 -16.3405
ltibia 29.5901
lfoot -5.64333 4.77002
ltoes -1.23359
213
root 6.83904 15.8879 -11.4746 7.64987 -6.80012 -3.65716
lowerback -3.15593 6.13801 2.03458
upperback -2.52373 8.13668 -0.344155
thorax -0.507889 4.04576 -1.24023
lowerneck -11.1511 -1.69046 -1.81207
upperneck 17.7736 -2.46097 2.60098
head 7.3458 -1.05621 0.912901
rclavicle 2.19098e-014 1.76918e-014
rhumerus -19.2694 -3.38539 -83.7037
rradius 38.5451
rwrist -10.6454
rhand -15.7026 -47.7251
rfingers 7.12502
rthumb 10.487 -77.4435
lclavicle 2.19098e-014 1.76918e-014
lhumerus -59.6742 15.5845 64.1318
lradius 15.9229
lwrist -4.88806
lhand -16.7229 -10.567
lfingers 7.12502
lthumb 9.50272 19.1988
rfemur 5.23413 6.60625 23.8994
rtibia 34.7828
rfoot 10.8335 8.9256
rtoes 1.84837
lfemur -37.0656 2.67022 -16.5461
ltibia 30.065
lfoot -5.79309 4.78159
ltoes -4.06985
214
root 6.86048 15.9175 -11.299 7.5017 -6.91234 -3.15156
lowerback -2.83488 6.10795 1.47087
upperback -2.64012 8.11537 -0.555277
thorax -0.852676 4.037 -1.19845
lowerneck -11.105 -1.70115 -1.65482
upperneck 17.9119 -2.48313 2.46628
head 7.37958 -1.06802 0.841157
rclavicle 1.26912e-014 7.95139e-016
rhumerus -20.9505 -2.99586 -83.8961
rradius 39.0836
rwrist -10.1104
rhand -18.2743 -40.0699
rfingers 7.12502
rthumb 8.00562 -69.8983
lclavicle 1.26912e-014 7.95139e-016
lhumerus -59.3336 16.2727 63.4167
lradius 16.0756
lwrist -4.97578
lhand -16.727 -11.0411
lfingers 7.12502
lthumb 9.49872 18.7248
rfemur 4.42679 6.88227 23.2953
rtibia 36.9795
rfoot 12.1054 8.04003
rtoes 1.35533
lfemur -36.4615 2.65089 -17.2862
ltibia 30.5118
lfoot -6.00666 4.56656
ltoes -2.98924
215
root 6.88402 15.9428 -11.125 7.4253 -6.82742 -2.50224
lowerback -2.73659 5.97866 0.693144
upperback -2.74239 7.95711 -0.701529
thorax -1.10071 3.96568 -0.952807
lowerneck -10.8903 -1.69209 -1.73977
upperneck 17.8873 -2.45751 2.47117
head 7.33383 -1.06294 0.860871
rclavicle 2.25931e-014 1.07344e-014
rhumerus -22.2094 -2.59902 -84.1778
rradius 38.9184
rwrist -10.4289
rhand -14.9739 -47.8562
rfingers 7.12502
rthumb 11.1899 -77.5378
lclavicle 2.25931e-014 1.07344e-014
lhumerus -58.9719 16.9125 63.1042
lradius 16.3388
lwrist -4.7271
lhand -17.0024 -11.0103
lfingers 7.12502
lthumb 9.23307 18.7676
rfemur 3.45833 6.79465 22.5003
rtibia 39.2755
rfoot 13.2858 7.41408
rtoes -0.228628
lfemur -35.919 2.48866 -18.2175
ltibia 30.7551
lfoot -6.02756 4.0922
ltoes -2.0595
216
root 6.91231 15.9636 -10.9535 7.36266 -6.59741 -2.11603
lowerback -2.86509 5.9188 0.513217
upperback -2.66418 7.87846 -0.873601
thorax -0.950242 3.92863 -1.01094
lowerneck -10.483 -1.80616 -2.20527
upperneck 17.5163 -2.5969 2.84482
head 7.15512 -1.13288 1.04909
rclavicle 5.66723e-014 8.74653e-015
rhumerus -22.6224 -3.24731 -84.4342
rradius 37.756
rwrist -10.432
rhand -15.0338 -48.9558
rfingers 7.12502
rthumb 11.1322 -78.6405
lclavicle 5.66723e-014 8.74653e-015
lhumerus -57.9125 16.8093 63.8213
lradius 16.6215
lwrist -3.42124
lhand -17.6812 -10.5742
lfingers 7.12502
lthumb 8.57803 19.2315
rfemur 2.45664 6.50992 21.9836
rtibia 41.6501
rfoot 14.5296 6.55911
rtoes -0.078694
lfemur -35.3392 2.37527 -18.9477
ltibia 30.7789
lfoot -5.89646 3.80636
ltoes -4.31006
217
root 6.93806 15.994 -10.7861 7.23911 -6.60369 -1.77979
lowerback -2.88839 5.93235 0.395906
upperback -2.52274 7.89809 -1.05977
thorax -0.780929 3.93983 -1.12202
lowerneck -10.2691 -1.92501 -2.62026
upperneck 17.3331 -2.75574 3.22339
head 7.07333 -1.20601 1.22728
rclavicle -1.46231e-014 -5.56597e-015
rhumerus -23.2424 -3.70605 -84.6096
rradius 36.9227
rwrist -10.0895
rhand -15.7819 -45.7012
rfingers 7.12502
rthumb 10.4106 -75.4235
lclavicle -1.46231e-014 -5.56597e-015
lhumerus -56.6876 16.6032 64.7064
lradius 17.0616
lwrist -2.00068
lhand -18.6728 -10.5128
lfingers 7.12502
lthumb 7.621 19.3299
rfemur 1.3111 6.28878 21.524
rtibia 44.0141
rfoot 16.0003 5.93765
rtoes -1.41497
lfemur -34.6195 2.56023 -19.6422
ltibia 30.7312
lfoot -5.81809 3.7855
ltoes -5.33761
218
root 6.9585 16.0291 -10.6185 7.07867 -6.77408 -1.38331
lowerback -2.77075 5.91253 -0.0190184
upperback -2.42987 7.87916 -1.16501
thorax -0.791777 3.93482 -1.01304
lowerneck -10.3799 -1.91852 -2.65595
upperneck 17.3942 -2.73864 3.21584
head 7.11258 -1.19949 1.23158
rclavicle 5.04602e-014 8.34896e-015
rhumerus -24.4678 -3.40672 -84.7247
rradius 36.737
rwrist -9.89752
rhand -16.3271 -43.2269
rfingers 7.12502
rthumb 9.88455 -72.9748
lclavicle 5.04602e-014 8.34896e-015
lhumerus -55.8908 16.73 65.2789
lradius 17.702
lwrist -0.815321
lhand -19.5953 -11.0434
lfingers 7.12502
lthumb 6.73053 18.8296
rfemur -0.0268378 6.11992 21.0343
rtibia 46.3735
rfoot 17.6163 5.76861
rtoes -6.62618
lfemur -33.7945 2.61459 -20.2585
ltibia 30.7363
lfoot -6.15844 3.80304
ltoes -2.29051
219
root 6.9782 16.0546 -10.4549 7.04592 -6.81806 -1.09521
lowerback -2.78566 5.84027 -0.372023
upperback -2.38851 7.7893 -1.21633
thorax -0.782026 3.89376 -0.873026
lowerneck -10.6625 -1.80955 -2.46295
upperneck 17.5199 -2.59454 3.06987
head 7.19439 -1.12737 1.16381
rclavicle -7.67744e-014 0
rhumerus -25.5026 -3.6001 -84.9146
rradius 36.3446
rwrist -9.2324
rhand -17.0156 -43.6685
rfingers 7.12502
rthumb 9.22033 -73.4469
lclavicle -7.67744e-014 0
lhumerus -54.9021 16.892 65.8453
lradius 17.755
lwrist 0.250515
lhand -20.4668 -11.3318
lfingers 7.12502
lthumb 5.88911 18.5664
rfemur -1.32918 6.1843 20.7198
rtibia 48.7611
rfoot 19.0387 3.92506
rtoes -4.85049
lfemur -33.1213 2.47767 -20.7268
ltibia 30.7284
lfoot -6.5637 3.79798
ltoes -0.837717
220
root 6.99723 16.0728 -10.3034 7.14964 -6.77892 -0.831864
lowerback -2.7239 5.73623 -0.746083
upperback -2.52599 7.65471 -1.25836
thorax -1.00225 3.83079 -0.734156
lowerneck -10.7678 -1.69343 -2.34837
upperneck 17.7242 -2.44498 2.99508
head 7.27263 -1.05273 1.13434
rclavicle 1.58549e-013 3.97569e-015
rhumerus -26.6585 -3.63932 -85.1353
rradius 36.0115
rwrist -8.86442
rhand -18.0515 -42.5514
rfingers 7.12502
rthumb 8.22066 -72.3715
lclavicle 1.58549e-013 3.97569e-015
lhumerus -54.0592 16.7443 66.6582
lradius 17.9359
lwrist 1.24696
lhand -21.1843 -10.4381
lfingers 7.12502
lthumb 5.19636 19.4782
rfemur -2.60179 6.30066 20.4088
rtibia 51.115
rfoot 19.3631 0.260422
rtoes 3.59996
lfemur -32.6987 2.64257 -21.2977
ltibia 30.7438
lfoot -6.59539 3.72447
ltoes -2.8455
221
root 7.01687 16.0931 -10.1597 7.21573 -6.64749 -0.543153
lowerback -2.4631 5.58965 -1.05
upperback -2.67594 7.45733 -1.35459
thorax -1.32864 3.73594 -0.710065
lowerneck -10.5544 -1.64029 -2.42462
upperneck 17.6284 -2.3721 3.06073
head 7.20306 -1.01959 1.1764
rclavicle -1.3654e-014 1.23246e-014
rhumerus -27.8532 -3.09652 -85.3834
rradius 35.7471
rwrist -8.97995
rhand -19.3344 -39.6618
rfingers 7.12502
rthumb 6.98231 -69.5266
lclavicle -1.3654e-014 1.23246e-014
lhumerus -53.5271 16.8468 67.109
lradius 18.5954
lwrist 1.6941
lhand -21.4997 -9.86524
lfingers 7.12502
lthumb 4.89182 20.0583
rfemur -4.03174 5.97816 20.0419
rtibia 53.3714
rfoot 18.2372 -2.0318
rtoes 1.2708
lfemur -32.3398 2.68256 -21.82
ltibia 30.941
lfoot -6.82883 3.46966
ltoes -1.56146
222
root 7.03951 16.1102 -10.0092 7.07255 -6.50502 -0.370933
lowerback -2.29908 5.38209 -1.12152
upperback -2.56019 7.17982 -1.39397
thorax -1.30536 3.59745 -0.724083
lowerneck -10.5314 -1.54198 -2.46222
upperneck 17.4217 -2.22946 3.07658
head 7.12824 -0.953912 1.20071
rclavicle -6.72762e-015 2.78299e-015
rhumerus -28.3541 -2.67934 -85.8133
rradius 35.077
rwrist -8.64336
rhand -20.3445 -35.795
rfingers 7.12502
rthumb 6.00723 -65.6898
lclavicle -6.72762e-015 2.78299e-015
lhumerus -52.3277 17.3927 67.3624
lradius 18.5053
lwrist 1.80608
lhand -21.8264 -10.3392
lfingers 7.12502
lthumb 4.57636 19.5913
rfemur -5.26915 5.4475 19.8067
rtibia 55.466
rfoot 16.3543 -3.06814
rtoes -9.2936
lfemur -31.7869 2.41595 -22.0945
ltibia 31.3007
lfoot -7.48997 3.23879
ltoes 0.964265
